<svg width="40" height="40" viewBox="0 0 40 40" fill="none" xmlns="http://www.w3.org/2000/svg">
<path d="M15.959 27.083L27.084 19.9997L15.959 12.9163V27.083ZM20.0007 36.6663C17.7229 36.6663 15.5701 36.2288 13.5423 35.3538C11.5145 34.4788 9.74371 33.2844 8.22982 31.7705C6.71593 30.2566 5.52148 28.4858 4.64648 26.458C3.77148 24.4302 3.33398 22.2775 3.33398 19.9997C3.33398 17.7219 3.77148 15.5691 4.64648 13.5413C5.52148 11.5136 6.71593 9.74273 8.22982 8.22884C9.74371 6.71495 11.5145 5.52051 13.5423 4.64551C15.5701 3.77051 17.7229 3.33301 20.0007 3.33301C22.2784 3.33301 24.4312 3.77051 26.459 4.64551C28.4868 5.52051 30.2576 6.71495 31.7715 8.22884C33.2854 9.74273 34.4798 11.5136 35.3548 13.5413C36.2298 15.5691 36.6673 17.7219 36.6673 19.9997C36.6673 22.2775 36.2298 24.4302 35.3548 26.458C34.4798 28.4858 33.2854 30.2566 31.7715 31.7705C30.2576 33.2844 28.4868 34.4788 26.459 35.3538C24.4312 36.2288 22.2784 36.6663 20.0007 36.6663ZM20.0007 34.1663C23.8895 34.1663 27.2229 32.7775 30.0007 29.9997C32.7784 27.2219 34.1673 23.8886 34.1673 19.9997C34.1673 16.1108 32.7784 12.7775 30.0007 9.99967C27.2229 7.2219 23.8895 5.83301 20.0007 5.83301C16.1118 5.83301 12.7784 7.2219 10.0007 9.99967C7.22287 12.7775 5.83398 16.1108 5.83398 19.9997C5.83398 23.8886 7.22287 27.2219 10.0007 29.9997C12.7784 32.7775 16.1118 34.1663 20.0007 34.1663Z" fill="white"/>
</svg>
